<svg width="24" height="24" viewBox="0 0 24 24" fill="none" xmlns="http://www.w3.org/2000/svg">
<path d="M7.0003 10.5902L11.2903 14.8302C11.3833 14.9239 11.4939 14.9983 11.6157 15.0491C11.7376 15.0998 11.8683 15.126 12.0003 15.126C12.1323 15.126 12.263 15.0998 12.3849 15.0491C12.5067 14.9983 12.6173 14.9239 12.7103 14.8302L16.9503 10.5902C17.044 10.4972 17.1184 10.3866 17.1692 10.2648C17.22 10.1429 17.2461 10.0122 17.2461 9.88018C17.2461 9.74817 17.22 9.61746 17.1692 9.4956C17.1184 9.37374 17.044 9.26314 16.9503 9.17018C16.7629 8.98393 16.5095 8.87939 16.2453 8.87939C15.9811 8.87939 15.7277 8.98393 15.5403 9.17018L12.0003 12.7102L8.4603 9.17018C8.27404 8.98543 8.02264 8.88128 7.7603 8.88018C7.62869 8.87942 7.49823 8.90464 7.37639 8.95441C7.25455 9.00417 7.14373 9.0775 7.05029 9.17018C6.95322 9.2598 6.87487 9.36776 6.81976 9.48784C6.76465 9.60791 6.73389 9.73772 6.72924 9.86975C6.72459 10.0018 6.74615 10.1334 6.79267 10.2571C6.8392 10.3807 6.90976 10.494 7.0003 10.5902Z" fill="#444452"/>
</svg>
