<svg width="24" height="24" viewBox="0 0 24 24" fill="none" xmlns="http://www.w3.org/2000/svg">
<path d="M8.46002 12.7105L14.12 18.3605C14.213 18.4542 14.3236 18.5286 14.4454 18.5793C14.5673 18.6301 14.698 18.6562 14.83 18.6562C14.962 18.6562 15.0927 18.6301 15.2146 18.5793C15.3365 18.5286 15.4471 18.4542 15.54 18.3605C15.7263 18.1731 15.8308 17.9196 15.8308 17.6555C15.8308 17.3913 15.7263 17.1378 15.54 16.9505L10.59 11.9505L15.54 7.00045C15.7263 6.81309 15.8308 6.55964 15.8308 6.29545C15.8308 6.03127 15.7263 5.77781 15.54 5.59045C15.4474 5.49596 15.337 5.42079 15.2151 5.3693C15.0932 5.3178 14.9623 5.291 14.83 5.29045C14.6977 5.291 14.5668 5.3178 14.445 5.3693C14.3231 5.42079 14.2126 5.49596 14.12 5.59045L8.46002 11.2405C8.35851 11.3341 8.2775 11.4477 8.2221 11.5742C8.16669 11.7007 8.13809 11.8373 8.13809 11.9755C8.13809 12.1136 8.16669 12.2502 8.2221 12.3767C8.2775 12.5032 8.35851 12.6168 8.46002 12.7105Z" fill="#444452"/>
</svg>
