<svg width="24" height="24" viewBox="0 0 24 24" fill="none" xmlns="http://www.w3.org/2000/svg">
<path d="M17 6.00002C17.1978 6.00002 17.3911 6.05867 17.5556 6.16855C17.72 6.27843 17.8482 6.43461 17.9239 6.61733C17.9996 6.80006 18.0194 7.00113 17.9808 7.19511C17.9422 7.38909 17.8469 7.56727 17.7071 7.70712C17.5672 7.84698 17.3891 7.94222 17.1951 7.9808C17.0011 8.01939 16.8 7.99958 16.6173 7.9239C16.4346 7.84821 16.2784 7.72004 16.1685 7.55559C16.0586 7.39114 16 7.1978 16 7.00002C16 6.7348 16.1053 6.48045 16.2929 6.29291C16.4804 6.10537 16.7348 6.00002 17 6.00002ZM2.28998 11.78L11.77 2.32002C11.8632 2.21948 11.9761 2.13919 12.1017 2.08414C12.2273 2.02909 12.3629 2.00046 12.5 2.00002H18.5C18.6316 1.99926 18.7621 2.02448 18.8839 2.07425C19.0057 2.12401 19.1165 2.19734 19.21 2.29002L21.71 4.78002C21.8027 4.87346 21.876 4.98427 21.9258 5.10611C21.9755 5.22795 22.0007 5.35841 22 5.49002V11.49C21.9963 11.7548 21.8927 12.0084 21.71 12.2L12.22 21.7C12.0283 21.8828 11.7748 21.9863 11.51 21.99C11.3784 21.9908 11.2479 21.9656 11.1261 21.9158C11.0042 21.866 10.8934 21.7927 10.8 21.7L2.28998 13.19C2.1973 13.0966 2.12398 12.9858 2.07421 12.8639C2.02445 12.7421 1.99922 12.6116 1.99998 12.48C2.00616 12.2187 2.10956 11.9691 2.28998 11.78V11.78ZM11.51 19.59L20 11.09V5.90002L18.1 4.00002H12.92L4.41998 12.49L11.51 19.59Z" fill="#00916E" stroke="white" stroke-width="0.5"/>
</svg>
