<svg width="24" height="24" viewBox="0 0 24 24" fill="none" xmlns="http://www.w3.org/2000/svg">
<path d="M22 5.49002C22.0007 5.35841 21.9755 5.22795 21.9258 5.10611C21.876 4.98427 21.8027 4.87346 21.71 4.78002L22 5.49002ZM22 5.49002V11.49V5.49002ZM11.9533 2.49002L11.9534 2.49014L11.9466 2.49698L2.46891 11.9546C2.33318 12.0979 2.2552 12.2863 2.24997 12.4836C2.24969 12.5816 2.2686 12.6787 2.30565 12.7694C2.34291 12.8606 2.39779 12.9436 2.46715 13.0136C2.46726 13.0137 2.46737 13.0139 2.46748 13.014L10.976 21.5225C10.9761 21.5226 10.9763 21.5227 10.9764 21.5228C11.0464 21.5922 11.1294 21.6471 11.2206 21.6844C11.3117 21.7216 11.4092 21.7405 11.5076 21.74C11.708 21.737 11.8999 21.6588 12.0454 21.521L21.5309 12.0255C21.6686 11.8802 21.7468 11.6884 21.75 11.4882V5.49002H21.75L21.75 5.48857C21.7506 5.38987 21.7316 5.29202 21.6943 5.20064C21.6571 5.10948 21.6023 5.02655 21.533 4.95658L19.0339 2.46751C19.0339 2.46746 19.0338 2.46741 19.0338 2.46735C18.9637 2.39792 18.8807 2.34298 18.7894 2.30568C18.698 2.26836 18.6001 2.24944 18.5014 2.25001V2.25002H18.5H12.5004C12.3977 2.2504 12.2962 2.27187 12.2021 2.31311C12.1079 2.3544 12.0232 2.41461 11.9533 2.49002ZM11.6869 19.7667L11.51 19.9438L11.3331 19.7667L4.24308 12.6667L4.06645 12.4898L4.24331 12.3131L12.7433 3.82314L12.8165 3.75002H12.92H18.1H18.2035L18.2768 3.82324L20.1768 5.72324L20.25 5.79646V5.90002V11.09V11.1935L20.1769 11.2667L11.6869 19.7667ZM17.4167 6.37641C17.2933 6.294 17.1483 6.25002 17 6.25002C16.8011 6.25002 16.6103 6.32903 16.4697 6.46969C16.329 6.61034 16.25 6.8011 16.25 7.00002C16.25 7.14835 16.294 7.29336 16.3764 7.41669C16.4588 7.54003 16.5759 7.63616 16.713 7.69293C16.85 7.74969 17.0008 7.76454 17.1463 7.73561C17.2918 7.70667 17.4254 7.63524 17.5303 7.53035C17.6352 7.42546 17.7066 7.29182 17.7356 7.14633C17.7645 7.00085 17.7497 6.85005 17.6929 6.713C17.6361 6.57596 17.54 6.45883 17.4167 6.37641Z" fill="#8800C8" stroke="#8800C8" stroke-width="0.5"/>
</svg>
